<!-- Generated by IcoMoon.io -->
<svg version="1.1" xmlns="http://www.w3.org/2000/svg" width="2048" height="2048" viewBox="0 0 2048 2048">
<title></title>
<g id="icomoon-ignore">
</g>
<path fill="#a13a95" d="M0 41.374v645.43h51.718v-593.714h1946.634v1843.2h-273.066v51.718h324.784v-1946.634z"></path>
<path fill="#323131" d="M2.068 1108.816h62.060v-122.052l95.16 122.052h53.786v-223.418h-62.060v117.916l-93.090-117.916h-55.854v223.418zM248.242 1108.816h66.198l16.55-39.306h86.884l16.55 39.306h66.198l-95.16-225.486h-59.992l-97.228 225.486zM347.54 1021.932l24.824-64.13 24.824 64.13h-49.648zM546.134 1108.816h62.060v-169.632h68.266v-53.786h-196.526v53.786h68.266v169.632zM713.696 1108.816h62.060v-223.418h-62.060v223.418zM937.116 1112.954c68.266 0 122.052-51.718 122.052-115.846v0c0-64.13-51.718-115.846-119.984-115.846s-122.052 51.718-122.052 115.846v0c0 66.198 49.648 115.846 119.984 115.846v0zM937.116 1057.098c-33.098 0-57.924-28.962-57.924-59.992v0c0-33.098 22.756-59.992 55.854-59.992 35.168 0 57.924 28.962 57.924 59.992v0c2.068 33.098-20.686 59.992-55.854 59.992v0zM1098.472 1108.816h62.060v-122.052l95.16 122.052h53.786v-223.418h-62.060v117.916l-93.090-117.916h-57.924v223.418zM1344.646 1108.816h66.198l16.55-39.306h86.884l16.55 39.306h66.198l-95.16-225.486h-59.992l-97.228 225.486zM1443.944 1021.932l24.824-64.13 24.824 64.13h-49.648zM1630.126 1108.816h169.632v-53.786h-109.64v-169.632h-62.060v223.418zM-2.068 1412.914h84.816c80.678 0 128.258-47.58 128.258-111.71v0c0-64.13-45.512-109.64-126.19-109.64h-86.884v221.35zM62.060 1359.128v-113.778h24.824c37.236 0 62.060 20.686 62.060 55.854v0c0 35.168-24.824 55.854-62.060 55.854h-24.824zM366.158 1419.12c68.266 0 122.052-51.718 122.052-115.846v0c0-64.13-51.718-115.846-119.984-115.846s-122.052 51.718-122.052 115.846v0c0 64.13 51.718 115.846 119.984 115.846v0zM368.226 1363.264c-33.098 0-57.924-28.962-57.924-59.992v0c0-33.098 22.756-59.992 55.854-59.992 35.168 0 57.924 28.962 57.924 59.992v0c0 31.030-22.756 59.992-55.854 59.992v0zM529.584 1412.914h59.992v-128.258l57.924 86.884h2.068l57.924-86.884v128.258h62.060v-223.418h-66.198l-53.786 86.884-53.786-86.884h-66.198v223.418zM815.062 1412.914h182.044v-53.786h-119.984v-35.168h107.572v-49.648h-107.572v-33.098h119.984v-51.718h-179.976v223.418zM1127.434 1417.050c53.786 0 91.022-26.892 91.022-72.404v0c0-41.374-33.098-57.924-82.748-70.336-31.030-6.206-39.306-12.412-39.306-22.756v0c0-8.274 8.274-14.48 22.756-14.48 20.686 0 41.374 8.274 62.060 22.756l31.030-43.442c-24.824-18.618-53.786-28.962-93.090-28.962-53.786 0-86.884 31.030-86.884 72.404v0c0 45.512 37.236 59.992 84.816 70.336 31.030 6.206 37.236 12.412 37.236 20.686v0c0 10.344-8.274 14.48-24.824 14.48-26.892 0-49.648-8.274-72.404-26.892l-35.168 41.374c26.892 24.824 64.13 37.236 105.504 37.236v0zM1311.548 1412.914h62.060v-169.632h68.266v-53.786h-196.526v53.786h68.266v169.632zM1483.248 1412.914h62.060v-223.418h-62.060v223.418zM1702.53 1419.12c49.648 0 78.61-20.686 99.296-49.648l-47.58-33.098c-14.48 16.55-26.892 26.892-49.648 26.892-31.030 0-53.786-26.892-53.786-59.992v0c0-33.098 22.756-59.992 53.786-59.992 20.686 0 37.236 10.344 49.648 26.892l47.58-35.168c-20.686-26.892-49.648-47.58-95.16-47.58-68.266 0-117.916 51.718-117.916 115.846v0c-2.068 66.198 49.648 115.846 113.778 115.846v0zM72.404 1708.736h57.924l91.022-225.486h-68.266l-51.718 140.67-51.718-140.67h-70.336l93.090 225.486zM260.654 1708.736h62.060v-225.486h-62.060v225.486zM486.142 1712.872c68.266 0 122.052-51.718 122.052-115.846v0c0-64.13-51.718-115.846-119.984-115.846s-122.052 51.718-122.052 115.846v0c0 64.13 49.648 115.846 119.984 115.846v0zM486.142 1657.018c-33.098 0-57.924-28.962-57.924-59.992v0c0-33.098 22.756-59.992 55.854-59.992 35.168 0 57.924 28.962 57.924 59.992v0c2.068 31.030-20.686 59.992-55.854 59.992v0zM649.568 1708.736h171.702v-53.786h-109.64v-169.632h-62.060v223.418zM864.712 1708.736h182.044v-53.786h-119.984v-35.168h107.572v-49.648h-107.572v-33.098h119.984v-51.718h-179.976v223.418zM1094.336 1708.736h62.060v-122.052l95.16 122.052h53.786v-225.486h-62.060v117.916l-93.090-117.916h-57.924v225.486zM1470.836 1712.872c49.648 0 78.61-20.686 99.296-49.648l-47.58-33.098c-12.412 14.48-26.892 24.824-49.648 24.824-31.030 0-53.786-26.892-53.786-59.992v0c0-33.098 22.756-59.992 53.786-59.992 20.686 0 37.236 10.344 49.648 26.892l47.58-35.168c-20.686-26.892-49.648-47.58-95.16-47.58-68.266 0-117.916 51.718-117.916 115.846v0c-2.068 68.266 49.648 117.916 113.778 117.916v0zM1611.508 1708.736h182.044v-53.786h-119.984v-35.168h107.572v-49.648h-107.572v-33.098h119.984v-51.718h-179.976v223.418zM62.060 1917.672h80.678v84.816h62.060v-223.418h-62.060v82.748h-80.678v-82.748h-62.060v138.602h62.060zM372.364 2006.626c68.266 0 122.052-51.718 122.052-115.846v0c0-64.13-51.718-115.846-119.984-115.846s-122.052 51.718-122.052 115.846v0c-2.068 64.13 49.648 115.846 119.984 115.846v0zM372.364 1950.772c-33.098 0-57.924-28.962-57.924-59.992v0c0-33.098 22.756-59.992 55.854-59.992 35.168 0 57.924 28.962 57.924 59.992v0c2.068 33.098-20.686 59.992-55.854 59.992v0zM591.644 2002.488h62.060v-169.632h68.266v-53.786h-196.526v53.786h68.266v169.632zM765.414 2002.488h171.702v-53.786h-109.64v-169.632h-62.060v223.418zM984.694 2002.488h62.060v-223.418h-62.060v223.418zM1096.404 2002.488h62.060v-122.052l95.16 122.052h53.786v-223.418h-62.060v117.916l-91.022-117.916h-57.924v223.418zM1357.058 2002.488h182.044v-53.786h-119.984v-35.168h107.572v-49.648h-107.572v-33.098h119.984v-51.718h-179.976v223.418z"></path>
<path fill="#d82631" d="M0 2006.626h59.992v-57.924h-59.992z"></path>
</svg>
